<svg width="1860" height="99" viewBox="0 0 1860 99" fill="none" xmlns="http://www.w3.org/2000/svg">
<mask id="path-1-inside-1_21_780" fill="white">
<path d="M0 0H1860V99H0V0Z"/>
</mask>
<path d="M1860 98H0V100H1860V98Z" fill="#F1F1F3" mask="url(#path-1-inside-1_21_780)"/>
<rect x="132" y="20.5" width="54" height="54" rx="8" fill="#FF9500"/>
<path d="M143.167 64.1667L154 53.3333H164.834V42.5L175.667 53.3333L164.834 64.1667H143.167Z" fill="white"/>
<path d="M143.167 42.5L154 53.3333V42.5H164.834L175.667 31.6667H154L143.167 42.5Z" fill="white"/>
<rect x="236" y="20" width="100" height="55" rx="8" fill="#F1F1F3"/>
<path d="M261.44 54V40.68H263.204V46.458H269.558V40.68H271.322V54H269.558V48.042H263.204V54H261.44ZM278.54 54.18C277.52 54.18 276.662 53.946 275.966 53.478C275.27 52.998 274.742 52.38 274.382 51.624C274.022 50.868 273.842 50.07 273.842 49.23C273.842 48.378 274.022 47.58 274.382 46.836C274.742 46.08 275.27 45.468 275.966 45C276.662 44.52 277.52 44.28 278.54 44.28C279.56 44.28 280.418 44.52 281.114 45C281.81 45.468 282.338 46.08 282.698 46.836C283.058 47.58 283.238 48.378 283.238 49.23C283.238 50.07 283.058 50.868 282.698 51.624C282.338 52.38 281.81 52.998 281.114 53.478C280.418 53.946 279.56 54.18 278.54 54.18ZM278.54 52.686C279.188 52.686 279.728 52.524 280.16 52.2C280.604 51.864 280.934 51.432 281.15 50.904C281.378 50.376 281.492 49.818 281.492 49.23C281.492 48.63 281.378 48.072 281.15 47.556C280.934 47.028 280.604 46.602 280.16 46.278C279.728 45.942 279.188 45.774 278.54 45.774C277.904 45.774 277.364 45.942 276.92 46.278C276.476 46.602 276.14 47.028 275.912 47.556C275.696 48.072 275.588 48.63 275.588 49.23C275.588 49.818 275.696 50.376 275.912 50.904C276.14 51.432 276.476 51.864 276.92 52.2C277.364 52.524 277.904 52.686 278.54 52.686ZM285.571 54V44.46H287.281V45.846H287.353C287.449 45.666 287.599 45.456 287.803 45.216C288.007 44.964 288.283 44.748 288.631 44.568C288.991 44.376 289.441 44.28 289.981 44.28C290.689 44.28 291.283 44.454 291.763 44.802C292.255 45.138 292.621 45.594 292.861 46.17H292.879C293.143 45.642 293.515 45.198 293.995 44.838C294.487 44.466 295.123 44.28 295.903 44.28C296.935 44.28 297.727 44.634 298.279 45.342C298.843 46.038 299.125 46.938 299.125 48.042V54H297.415V48.132C297.415 47.424 297.247 46.854 296.911 46.422C296.575 45.978 296.089 45.756 295.453 45.756C294.901 45.756 294.457 45.906 294.121 46.206C293.797 46.506 293.563 46.878 293.419 47.322C293.275 47.766 293.203 48.21 293.203 48.654V54H291.493V48.132C291.493 47.424 291.325 46.854 290.989 46.422C290.665 45.978 290.179 45.756 289.531 45.756C288.979 45.756 288.535 45.906 288.199 46.206C287.875 46.506 287.641 46.884 287.497 47.34C287.353 47.784 287.281 48.222 287.281 48.654V54H285.571ZM305.975 54.18C305.195 54.18 304.517 54.042 303.941 53.766C303.377 53.478 302.909 53.094 302.537 52.614C302.177 52.134 301.907 51.606 301.727 51.03C301.547 50.442 301.457 49.842 301.457 49.23C301.457 48.63 301.541 48.036 301.709 47.448C301.889 46.86 302.159 46.326 302.519 45.846C302.891 45.366 303.353 44.988 303.905 44.712C304.469 44.424 305.135 44.28 305.903 44.28C306.719 44.28 307.439 44.466 308.063 44.838C308.687 45.21 309.179 45.762 309.539 46.494C309.899 47.226 310.079 48.144 310.079 49.248V49.752H303.185C303.221 50.292 303.347 50.79 303.563 51.246C303.791 51.69 304.109 52.05 304.517 52.326C304.925 52.59 305.411 52.722 305.975 52.722C306.467 52.722 306.863 52.644 307.163 52.488C307.475 52.32 307.721 52.128 307.901 51.912C308.081 51.696 308.201 51.51 308.261 51.354C308.333 51.186 308.369 51.102 308.369 51.102H309.971C309.971 51.102 309.941 51.21 309.881 51.426C309.821 51.63 309.713 51.882 309.557 52.182C309.401 52.482 309.173 52.788 308.873 53.1C308.573 53.4 308.189 53.658 307.721 53.874C307.253 54.078 306.671 54.18 305.975 54.18ZM303.203 48.42H308.405C308.381 47.796 308.249 47.292 308.009 46.908C307.769 46.512 307.463 46.218 307.091 46.026C306.719 45.834 306.323 45.738 305.903 45.738C305.147 45.738 304.529 45.984 304.049 46.476C303.569 46.956 303.287 47.604 303.203 48.42Z" fill="#262626"/>
<path d="M369.29 54.18C368.246 54.18 367.328 53.988 366.536 53.604C365.744 53.208 365.084 52.686 364.556 52.038C364.04 51.378 363.65 50.646 363.386 49.842C363.122 49.026 362.99 48.192 362.99 47.34C362.99 46.488 363.122 45.654 363.386 44.838C363.65 44.022 364.04 43.29 364.556 42.642C365.084 41.982 365.744 41.46 366.536 41.076C367.328 40.692 368.246 40.5 369.29 40.5C370.154 40.5 370.892 40.614 371.504 40.842C372.128 41.058 372.644 41.34 373.052 41.688C373.472 42.036 373.808 42.408 374.06 42.804C374.324 43.2 374.516 43.572 374.636 43.92C374.768 44.268 374.852 44.556 374.888 44.784C374.936 45 374.96 45.108 374.96 45.108H373.196C373.196 45.108 373.172 45.012 373.124 44.82C373.076 44.616 372.98 44.37 372.836 44.082C372.692 43.782 372.476 43.482 372.188 43.182C371.9 42.882 371.522 42.636 371.054 42.444C370.586 42.24 370.004 42.138 369.308 42.138C368.552 42.138 367.892 42.288 367.328 42.588C366.764 42.876 366.29 43.272 365.906 43.776C365.534 44.268 365.252 44.826 365.06 45.45C364.88 46.062 364.79 46.692 364.79 47.34C364.79 47.988 364.88 48.624 365.06 49.248C365.252 49.86 365.534 50.418 365.906 50.922C366.29 51.414 366.764 51.81 367.328 52.11C367.892 52.398 368.552 52.542 369.308 52.542C370.004 52.542 370.586 52.44 371.054 52.236C371.522 52.032 371.9 51.786 372.188 51.498C372.476 51.198 372.692 50.904 372.836 50.616C372.98 50.316 373.076 50.064 373.124 49.86C373.172 49.656 373.196 49.554 373.196 49.554H374.96C374.96 49.554 374.936 49.668 374.888 49.896C374.852 50.112 374.768 50.4 374.636 50.76C374.516 51.108 374.324 51.48 374.06 51.876C373.808 52.26 373.472 52.632 373.052 52.992C372.644 53.34 372.128 53.628 371.504 53.856C370.892 54.072 370.154 54.18 369.29 54.18ZM381.735 54.18C380.715 54.18 379.857 53.946 379.161 53.478C378.465 52.998 377.937 52.38 377.577 51.624C377.217 50.868 377.037 50.07 377.037 49.23C377.037 48.378 377.217 47.58 377.577 46.836C377.937 46.08 378.465 45.468 379.161 45C379.857 44.52 380.715 44.28 381.735 44.28C382.755 44.28 383.613 44.52 384.309 45C385.005 45.468 385.533 46.08 385.893 46.836C386.253 47.58 386.433 48.378 386.433 49.23C386.433 50.07 386.253 50.868 385.893 51.624C385.533 52.38 385.005 52.998 384.309 53.478C383.613 53.946 382.755 54.18 381.735 54.18ZM381.735 52.686C382.383 52.686 382.923 52.524 383.355 52.2C383.799 51.864 384.129 51.432 384.345 50.904C384.573 50.376 384.687 49.818 384.687 49.23C384.687 48.63 384.573 48.072 384.345 47.556C384.129 47.028 383.799 46.602 383.355 46.278C382.923 45.942 382.383 45.774 381.735 45.774C381.099 45.774 380.559 45.942 380.115 46.278C379.671 46.602 379.335 47.028 379.107 47.556C378.891 48.072 378.783 48.63 378.783 49.23C378.783 49.818 378.891 50.376 379.107 50.904C379.335 51.432 379.671 51.864 380.115 52.2C380.559 52.524 381.099 52.686 381.735 52.686ZM391.88 54.18C390.932 54.18 390.176 53.886 389.612 53.298C389.048 52.71 388.766 51.894 388.766 50.85V44.46H390.476V50.76C390.476 51.384 390.644 51.864 390.98 52.2C391.328 52.536 391.784 52.704 392.348 52.704C392.924 52.704 393.386 52.554 393.734 52.254C394.082 51.954 394.334 51.57 394.49 51.102C394.646 50.634 394.724 50.154 394.724 49.662V44.46H396.434V54H394.724V52.632H394.616C394.544 52.776 394.406 52.974 394.202 53.226C393.998 53.466 393.71 53.688 393.338 53.892C392.966 54.084 392.48 54.18 391.88 54.18ZM398.961 54V44.46H400.671V45.648H400.743C400.947 45.288 401.247 44.97 401.643 44.694C402.039 44.418 402.597 44.28 403.317 44.28C403.521 44.28 403.707 44.292 403.875 44.316C404.043 44.328 404.127 44.334 404.127 44.334V45.972C404.127 45.972 404.031 45.966 403.839 45.954C403.659 45.93 403.467 45.918 403.263 45.918C402.435 45.918 401.793 46.158 401.337 46.638C400.893 47.106 400.671 47.874 400.671 48.942V54H398.961ZM409.502 54.18C408.77 54.18 408.164 54.078 407.684 53.874C407.216 53.67 406.844 53.418 406.568 53.118C406.292 52.806 406.088 52.5 405.956 52.2C405.824 51.888 405.74 51.63 405.704 51.426C405.668 51.222 405.65 51.12 405.65 51.12H407.378C407.378 51.12 407.396 51.204 407.432 51.372C407.48 51.528 407.57 51.714 407.702 51.93C407.846 52.134 408.062 52.32 408.35 52.488C408.65 52.644 409.046 52.722 409.538 52.722C410.102 52.722 410.54 52.59 410.852 52.326C411.164 52.05 411.32 51.714 411.32 51.318C411.32 50.97 411.194 50.694 410.942 50.49C410.702 50.286 410.354 50.13 409.898 50.022L408.602 49.716C408.122 49.596 407.672 49.434 407.252 49.23C406.832 49.026 406.49 48.75 406.226 48.402C405.974 48.042 405.848 47.598 405.848 47.07C405.848 46.254 406.154 45.588 406.766 45.072C407.378 44.544 408.176 44.28 409.16 44.28C409.82 44.28 410.366 44.376 410.798 44.568C411.23 44.748 411.572 44.976 411.824 45.252C412.088 45.528 412.28 45.804 412.4 46.08C412.532 46.356 412.616 46.59 412.652 46.782C412.688 46.962 412.706 47.052 412.706 47.052H411.05C411.05 47.052 411.032 46.986 410.996 46.854C410.96 46.71 410.876 46.554 410.744 46.386C410.624 46.206 410.438 46.05 410.186 45.918C409.934 45.774 409.598 45.702 409.178 45.702C408.602 45.702 408.182 45.834 407.918 46.098C407.654 46.362 407.522 46.65 407.522 46.962C407.522 47.262 407.642 47.508 407.882 47.7C408.134 47.88 408.458 48.018 408.854 48.114L410.168 48.42C410.984 48.612 411.656 48.93 412.184 49.374C412.724 49.806 412.994 50.43 412.994 51.246C412.994 51.774 412.856 52.266 412.58 52.722C412.304 53.166 411.908 53.52 411.392 53.784C410.876 54.048 410.246 54.18 409.502 54.18ZM419.313 54.18C418.533 54.18 417.855 54.042 417.279 53.766C416.715 53.478 416.247 53.094 415.875 52.614C415.515 52.134 415.245 51.606 415.065 51.03C414.885 50.442 414.795 49.842 414.795 49.23C414.795 48.63 414.879 48.036 415.047 47.448C415.227 46.86 415.497 46.326 415.857 45.846C416.229 45.366 416.691 44.988 417.243 44.712C417.807 44.424 418.473 44.28 419.241 44.28C420.057 44.28 420.777 44.466 421.401 44.838C422.025 45.21 422.517 45.762 422.877 46.494C423.237 47.226 423.417 48.144 423.417 49.248V49.752H416.523C416.559 50.292 416.685 50.79 416.901 51.246C417.129 51.69 417.447 52.05 417.855 52.326C418.263 52.59 418.749 52.722 419.313 52.722C419.805 52.722 420.201 52.644 420.501 52.488C420.813 52.32 421.059 52.128 421.239 51.912C421.419 51.696 421.539 51.51 421.599 51.354C421.671 51.186 421.707 51.102 421.707 51.102H423.309C423.309 51.102 423.279 51.21 423.219 51.426C423.159 51.63 423.051 51.882 422.895 52.182C422.739 52.482 422.511 52.788 422.211 53.1C421.911 53.4 421.527 53.658 421.059 53.874C420.591 54.078 420.009 54.18 419.313 54.18ZM416.541 48.42H421.743C421.719 47.796 421.587 47.292 421.347 46.908C421.107 46.512 420.801 46.218 420.429 46.026C420.057 45.834 419.661 45.738 419.241 45.738C418.485 45.738 417.867 45.984 417.387 46.476C416.907 46.956 416.625 47.604 416.541 48.42ZM429.242 54.18C428.51 54.18 427.904 54.078 427.424 53.874C426.956 53.67 426.584 53.418 426.308 53.118C426.032 52.806 425.828 52.5 425.696 52.2C425.564 51.888 425.48 51.63 425.444 51.426C425.408 51.222 425.39 51.12 425.39 51.12H427.118C427.118 51.12 427.136 51.204 427.172 51.372C427.22 51.528 427.31 51.714 427.442 51.93C427.586 52.134 427.802 52.32 428.09 52.488C428.39 52.644 428.786 52.722 429.278 52.722C429.842 52.722 430.28 52.59 430.592 52.326C430.904 52.05 431.06 51.714 431.06 51.318C431.06 50.97 430.934 50.694 430.682 50.49C430.442 50.286 430.094 50.13 429.638 50.022L428.342 49.716C427.862 49.596 427.412 49.434 426.992 49.23C426.572 49.026 426.23 48.75 425.966 48.402C425.714 48.042 425.588 47.598 425.588 47.07C425.588 46.254 425.894 45.588 426.506 45.072C427.118 44.544 427.916 44.28 428.9 44.28C429.56 44.28 430.106 44.376 430.538 44.568C430.97 44.748 431.312 44.976 431.564 45.252C431.828 45.528 432.02 45.804 432.14 46.08C432.272 46.356 432.356 46.59 432.392 46.782C432.428 46.962 432.446 47.052 432.446 47.052H430.79C430.79 47.052 430.772 46.986 430.736 46.854C430.7 46.71 430.616 46.554 430.484 46.386C430.364 46.206 430.178 46.05 429.926 45.918C429.674 45.774 429.338 45.702 428.918 45.702C428.342 45.702 427.922 45.834 427.658 46.098C427.394 46.362 427.262 46.65 427.262 46.962C427.262 47.262 427.382 47.508 427.622 47.7C427.874 47.88 428.198 48.018 428.594 48.114L429.908 48.42C430.724 48.612 431.396 48.93 431.924 49.374C432.464 49.806 432.734 50.43 432.734 51.246C432.734 51.774 432.596 52.266 432.32 52.722C432.044 53.166 431.648 53.52 431.132 53.784C430.616 54.048 429.986 54.18 429.242 54.18Z" fill="#262626"/>
<path d="M460.81 54L465.508 40.68H467.722L472.438 54H470.566L469.45 50.814H463.798L462.682 54H460.81ZM464.338 49.23H468.91L466.624 42.696L464.338 49.23ZM479.59 54.18C478.99 54.18 478.486 54.084 478.078 53.892C477.67 53.7 477.34 53.472 477.088 53.208C476.848 52.944 476.656 52.704 476.512 52.488H476.404V54H474.694V40.32H476.404V45.972H476.512C476.656 45.744 476.848 45.498 477.088 45.234C477.34 44.97 477.67 44.748 478.078 44.568C478.486 44.376 478.99 44.28 479.59 44.28C480.31 44.28 480.94 44.424 481.48 44.712C482.02 44.988 482.47 45.366 482.83 45.846C483.19 46.314 483.46 46.842 483.64 47.43C483.82 48.018 483.91 48.618 483.91 49.23C483.91 49.842 483.82 50.442 483.64 51.03C483.46 51.618 483.19 52.152 482.83 52.632C482.47 53.1 482.02 53.478 481.48 53.766C480.94 54.042 480.31 54.18 479.59 54.18ZM479.302 52.722C479.95 52.722 480.484 52.554 480.904 52.218C481.336 51.87 481.654 51.432 481.858 50.904C482.074 50.364 482.182 49.806 482.182 49.23C482.182 48.642 482.074 48.084 481.858 47.556C481.654 47.028 481.336 46.596 480.904 46.26C480.484 45.912 479.95 45.738 479.302 45.738C478.666 45.738 478.132 45.912 477.7 46.26C477.28 46.596 476.962 47.028 476.746 47.556C476.542 48.084 476.44 48.642 476.44 49.23C476.44 49.806 476.542 50.364 476.746 50.904C476.962 51.432 477.28 51.87 477.7 52.218C478.132 52.554 478.666 52.722 479.302 52.722ZM490.686 54.18C489.666 54.18 488.808 53.946 488.112 53.478C487.416 52.998 486.888 52.38 486.528 51.624C486.168 50.868 485.988 50.07 485.988 49.23C485.988 48.378 486.168 47.58 486.528 46.836C486.888 46.08 487.416 45.468 488.112 45C488.808 44.52 489.666 44.28 490.686 44.28C491.706 44.28 492.564 44.52 493.26 45C493.956 45.468 494.484 46.08 494.844 46.836C495.204 47.58 495.384 48.378 495.384 49.23C495.384 50.07 495.204 50.868 494.844 51.624C494.484 52.38 493.956 52.998 493.26 53.478C492.564 53.946 491.706 54.18 490.686 54.18ZM490.686 52.686C491.334 52.686 491.874 52.524 492.306 52.2C492.75 51.864 493.08 51.432 493.296 50.904C493.524 50.376 493.638 49.818 493.638 49.23C493.638 48.63 493.524 48.072 493.296 47.556C493.08 47.028 492.75 46.602 492.306 46.278C491.874 45.942 491.334 45.774 490.686 45.774C490.05 45.774 489.51 45.942 489.066 46.278C488.622 46.602 488.286 47.028 488.058 47.556C487.842 48.072 487.734 48.63 487.734 49.23C487.734 49.818 487.842 50.376 488.058 50.904C488.286 51.432 488.622 51.864 489.066 52.2C489.51 52.524 490.05 52.686 490.686 52.686ZM500.831 54.18C499.883 54.18 499.127 53.886 498.563 53.298C497.999 52.71 497.717 51.894 497.717 50.85V44.46H499.427V50.76C499.427 51.384 499.595 51.864 499.931 52.2C500.279 52.536 500.735 52.704 501.299 52.704C501.875 52.704 502.337 52.554 502.685 52.254C503.033 51.954 503.285 51.57 503.441 51.102C503.597 50.634 503.675 50.154 503.675 49.662V44.46H505.385V54H503.675V52.632H503.567C503.495 52.776 503.357 52.974 503.153 53.226C502.949 53.466 502.661 53.688 502.289 53.892C501.917 54.084 501.431 54.18 500.831 54.18ZM511.962 54.18C510.978 54.18 510.234 53.928 509.73 53.424C509.238 52.92 508.992 52.212 508.992 51.3V45.864H507.282V44.46H508.992V42.066H510.702V44.46H513.024V45.864H510.702V51.3C510.702 51.78 510.834 52.134 511.098 52.362C511.362 52.578 511.746 52.686 512.25 52.686C512.514 52.686 512.766 52.668 513.006 52.632C513.246 52.596 513.366 52.578 513.366 52.578V54.036C513.366 54.036 513.228 54.06 512.952 54.108C512.676 54.156 512.346 54.18 511.962 54.18ZM525.016 54.18C523.972 54.18 523.072 53.982 522.316 53.586C521.56 53.178 520.972 52.608 520.552 51.876C520.144 51.132 519.94 50.256 519.94 49.248V40.68H521.704V49.248C521.704 50.172 521.974 50.946 522.514 51.57C523.066 52.194 523.9 52.506 525.016 52.506C526.144 52.506 526.978 52.194 527.518 51.57C528.07 50.946 528.346 50.172 528.346 49.248V40.68H530.11V49.248C530.11 50.256 529.9 51.132 529.48 51.876C529.072 52.608 528.49 53.178 527.734 53.586C526.978 53.982 526.072 54.18 525.016 54.18ZM536.295 54.18C535.563 54.18 534.957 54.078 534.477 53.874C534.009 53.67 533.637 53.418 533.361 53.118C533.085 52.806 532.881 52.5 532.749 52.2C532.617 51.888 532.533 51.63 532.497 51.426C532.461 51.222 532.443 51.12 532.443 51.12H534.171C534.171 51.12 534.189 51.204 534.225 51.372C534.273 51.528 534.363 51.714 534.495 51.93C534.639 52.134 534.855 52.32 535.143 52.488C535.443 52.644 535.839 52.722 536.331 52.722C536.895 52.722 537.333 52.59 537.645 52.326C537.957 52.05 538.113 51.714 538.113 51.318C538.113 50.97 537.987 50.694 537.735 50.49C537.495 50.286 537.147 50.13 536.691 50.022L535.395 49.716C534.915 49.596 534.465 49.434 534.045 49.23C533.625 49.026 533.283 48.75 533.019 48.402C532.767 48.042 532.641 47.598 532.641 47.07C532.641 46.254 532.947 45.588 533.559 45.072C534.171 44.544 534.969 44.28 535.953 44.28C536.613 44.28 537.159 44.376 537.591 44.568C538.023 44.748 538.365 44.976 538.617 45.252C538.881 45.528 539.073 45.804 539.193 46.08C539.325 46.356 539.409 46.59 539.445 46.782C539.481 46.962 539.499 47.052 539.499 47.052H537.843C537.843 47.052 537.825 46.986 537.789 46.854C537.753 46.71 537.669 46.554 537.537 46.386C537.417 46.206 537.231 46.05 536.979 45.918C536.727 45.774 536.391 45.702 535.971 45.702C535.395 45.702 534.975 45.834 534.711 46.098C534.447 46.362 534.315 46.65 534.315 46.962C534.315 47.262 534.435 47.508 534.675 47.7C534.927 47.88 535.251 48.018 535.647 48.114L536.961 48.42C537.777 48.612 538.449 48.93 538.977 49.374C539.517 49.806 539.787 50.43 539.787 51.246C539.787 51.774 539.649 52.266 539.373 52.722C539.097 53.166 538.701 53.52 538.185 53.784C537.669 54.048 537.039 54.18 536.295 54.18Z" fill="#262626"/>
<path d="M568.44 54V40.68H573.192C574.212 40.68 575.058 40.89 575.73 41.31C576.414 41.73 576.924 42.276 577.26 42.948C577.608 43.608 577.782 44.298 577.782 45.018C577.782 45.75 577.608 46.452 577.26 47.124C576.924 47.784 576.414 48.33 575.73 48.762C575.058 49.182 574.212 49.392 573.192 49.392H570.204V54H568.44ZM573.192 42.228H570.204V47.844H573.192C573.828 47.844 574.356 47.706 574.776 47.43C575.196 47.154 575.508 46.806 575.712 46.386C575.928 45.954 576.036 45.504 576.036 45.036C576.036 44.568 575.928 44.118 575.712 43.686C575.508 43.254 575.196 42.906 574.776 42.642C574.356 42.366 573.828 42.228 573.192 42.228ZM579.844 54V44.46H581.554V45.648H581.626C581.83 45.288 582.13 44.97 582.526 44.694C582.922 44.418 583.48 44.28 584.2 44.28C584.404 44.28 584.59 44.292 584.758 44.316C584.926 44.328 585.01 44.334 585.01 44.334V45.972C585.01 45.972 584.914 45.966 584.722 45.954C584.542 45.93 584.35 45.918 584.146 45.918C583.318 45.918 582.676 46.158 582.22 46.638C581.776 47.106 581.554 47.874 581.554 48.942V54H579.844ZM588.36 42.642C588.036 42.642 587.766 42.534 587.55 42.318C587.346 42.102 587.244 41.844 587.244 41.544C587.244 41.232 587.346 40.968 587.55 40.752C587.766 40.536 588.036 40.428 588.36 40.428C588.672 40.428 588.936 40.536 589.152 40.752C589.368 40.968 589.476 41.232 589.476 41.544C589.476 41.844 589.368 42.102 589.152 42.318C588.936 42.534 588.672 42.642 588.36 42.642ZM587.514 54V44.46H589.224V54H587.514ZM596.508 54.18C595.728 54.18 595.044 54.042 594.456 53.766C593.868 53.478 593.376 53.1 592.98 52.632C592.596 52.152 592.302 51.618 592.098 51.03C591.906 50.442 591.81 49.842 591.81 49.23C591.81 48.618 591.906 48.024 592.098 47.448C592.29 46.86 592.578 46.326 592.962 45.846C593.358 45.366 593.85 44.988 594.438 44.712C595.026 44.424 595.716 44.28 596.508 44.28C597.276 44.28 597.912 44.394 598.416 44.622C598.92 44.85 599.322 45.138 599.622 45.486C599.934 45.822 600.162 46.164 600.306 46.512C600.462 46.848 600.564 47.13 600.612 47.358C600.66 47.586 600.684 47.7 600.684 47.7H599.028C599.028 47.7 598.998 47.604 598.938 47.412C598.878 47.208 598.764 46.98 598.596 46.728C598.428 46.476 598.176 46.254 597.84 46.062C597.504 45.858 597.06 45.756 596.508 45.756C595.848 45.756 595.29 45.924 594.834 46.26C594.39 46.584 594.054 47.01 593.826 47.538C593.61 48.066 593.502 48.63 593.502 49.23C593.502 49.83 593.61 50.394 593.826 50.922C594.054 51.45 594.39 51.882 594.834 52.218C595.29 52.542 595.848 52.704 596.508 52.704C597.06 52.704 597.504 52.608 597.84 52.416C598.176 52.212 598.428 51.984 598.596 51.732C598.764 51.48 598.878 51.258 598.938 51.066C598.998 50.862 599.028 50.76 599.028 50.76H600.684C600.684 50.76 600.66 50.874 600.612 51.102C600.564 51.33 600.462 51.618 600.306 51.966C600.162 52.302 599.934 52.644 599.622 52.992C599.322 53.328 598.92 53.61 598.416 53.838C597.912 54.066 597.276 54.18 596.508 54.18ZM604.146 42.642C603.822 42.642 603.552 42.534 603.336 42.318C603.132 42.102 603.03 41.844 603.03 41.544C603.03 41.232 603.132 40.968 603.336 40.752C603.552 40.536 603.822 40.428 604.146 40.428C604.458 40.428 604.722 40.536 604.938 40.752C605.154 40.968 605.262 41.232 605.262 41.544C605.262 41.844 605.154 42.102 604.938 42.318C604.722 42.534 604.458 42.642 604.146 42.642ZM603.3 54V44.46H605.01V54H603.3ZM607.776 54V44.46H609.486V45.846H609.594C609.678 45.702 609.816 45.504 610.008 45.252C610.212 45 610.5 44.778 610.872 44.586C611.244 44.382 611.712 44.28 612.276 44.28C612.972 44.28 613.566 44.442 614.058 44.766C614.55 45.078 614.922 45.504 615.174 46.044C615.438 46.584 615.57 47.19 615.57 47.862V54H613.86V47.97C613.86 47.334 613.68 46.806 613.32 46.386C612.972 45.966 612.462 45.756 611.79 45.756C611.25 45.756 610.812 45.894 610.476 46.17C610.14 46.434 609.888 46.788 609.72 47.232C609.564 47.664 609.486 48.126 609.486 48.618V54H607.776ZM622.684 57.78C621.892 57.78 621.232 57.672 620.704 57.456C620.176 57.252 619.75 56.988 619.426 56.664C619.114 56.352 618.88 56.04 618.724 55.728C618.568 55.416 618.466 55.152 618.418 54.936C618.37 54.732 618.346 54.63 618.346 54.63H620.056C620.056 54.63 620.086 54.714 620.146 54.882C620.206 55.05 620.32 55.242 620.488 55.458C620.668 55.674 620.932 55.866 621.28 56.034C621.628 56.202 622.096 56.286 622.684 56.286C623.38 56.286 623.926 56.148 624.322 55.872C624.718 55.608 625 55.26 625.168 54.828C625.348 54.396 625.438 53.94 625.438 53.46V52.362H625.348C625.228 52.566 625.036 52.8 624.772 53.064C624.52 53.316 624.184 53.538 623.764 53.73C623.344 53.91 622.828 54 622.216 54C621.496 54 620.866 53.862 620.326 53.586C619.786 53.31 619.336 52.938 618.976 52.47C618.628 52.002 618.364 51.48 618.184 50.904C618.004 50.328 617.914 49.74 617.914 49.14C617.914 48.54 618.004 47.952 618.184 47.376C618.364 46.8 618.628 46.278 618.976 45.81C619.336 45.342 619.786 44.97 620.326 44.694C620.866 44.418 621.496 44.28 622.216 44.28C622.828 44.28 623.344 44.376 623.764 44.568C624.184 44.748 624.52 44.964 624.772 45.216C625.036 45.468 625.228 45.702 625.348 45.918H625.438V44.46H627.148V53.442C627.148 54.774 626.758 55.83 625.978 56.61C625.21 57.39 624.112 57.78 622.684 57.78ZM622.54 52.542C623.176 52.542 623.704 52.38 624.124 52.056C624.556 51.72 624.874 51.294 625.078 50.778C625.294 50.262 625.402 49.716 625.402 49.14C625.402 48.564 625.294 48.018 625.078 47.502C624.874 46.974 624.556 46.548 624.124 46.224C623.704 45.9 623.176 45.738 622.54 45.738C621.904 45.738 621.37 45.9 620.938 46.224C620.506 46.548 620.182 46.974 619.966 47.502C619.762 48.018 619.66 48.564 619.66 49.14C619.66 49.716 619.762 50.262 619.966 50.778C620.182 51.294 620.506 51.72 620.938 52.056C621.37 52.38 621.904 52.542 622.54 52.542Z" fill="#262626"/>
<path d="M662.29 54.18C661.246 54.18 660.328 53.988 659.536 53.604C658.744 53.208 658.084 52.686 657.556 52.038C657.04 51.378 656.65 50.646 656.386 49.842C656.122 49.026 655.99 48.192 655.99 47.34C655.99 46.488 656.122 45.654 656.386 44.838C656.65 44.022 657.04 43.29 657.556 42.642C658.084 41.982 658.744 41.46 659.536 41.076C660.328 40.692 661.246 40.5 662.29 40.5C663.154 40.5 663.892 40.614 664.504 40.842C665.128 41.058 665.644 41.34 666.052 41.688C666.472 42.036 666.808 42.408 667.06 42.804C667.324 43.2 667.516 43.572 667.636 43.92C667.768 44.268 667.852 44.556 667.888 44.784C667.936 45 667.96 45.108 667.96 45.108H666.196C666.196 45.108 666.172 45.012 666.124 44.82C666.076 44.616 665.98 44.37 665.836 44.082C665.692 43.782 665.476 43.482 665.188 43.182C664.9 42.882 664.522 42.636 664.054 42.444C663.586 42.24 663.004 42.138 662.308 42.138C661.552 42.138 660.892 42.288 660.328 42.588C659.764 42.876 659.29 43.272 658.906 43.776C658.534 44.268 658.252 44.826 658.06 45.45C657.88 46.062 657.79 46.692 657.79 47.34C657.79 47.988 657.88 48.624 658.06 49.248C658.252 49.86 658.534 50.418 658.906 50.922C659.29 51.414 659.764 51.81 660.328 52.11C660.892 52.398 661.552 52.542 662.308 52.542C663.004 52.542 663.586 52.44 664.054 52.236C664.522 52.032 664.9 51.786 665.188 51.498C665.476 51.198 665.692 50.904 665.836 50.616C665.98 50.316 666.076 50.064 666.124 49.86C666.172 49.656 666.196 49.554 666.196 49.554H667.96C667.96 49.554 667.936 49.668 667.888 49.896C667.852 50.112 667.768 50.4 667.636 50.76C667.516 51.108 667.324 51.48 667.06 51.876C666.808 52.26 666.472 52.632 666.052 52.992C665.644 53.34 665.128 53.628 664.504 53.856C663.892 54.072 663.154 54.18 662.29 54.18ZM674.735 54.18C673.715 54.18 672.857 53.946 672.161 53.478C671.465 52.998 670.937 52.38 670.577 51.624C670.217 50.868 670.037 50.07 670.037 49.23C670.037 48.378 670.217 47.58 670.577 46.836C670.937 46.08 671.465 45.468 672.161 45C672.857 44.52 673.715 44.28 674.735 44.28C675.755 44.28 676.613 44.52 677.309 45C678.005 45.468 678.533 46.08 678.893 46.836C679.253 47.58 679.433 48.378 679.433 49.23C679.433 50.07 679.253 50.868 678.893 51.624C678.533 52.38 678.005 52.998 677.309 53.478C676.613 53.946 675.755 54.18 674.735 54.18ZM674.735 52.686C675.383 52.686 675.923 52.524 676.355 52.2C676.799 51.864 677.129 51.432 677.345 50.904C677.573 50.376 677.687 49.818 677.687 49.23C677.687 48.63 677.573 48.072 677.345 47.556C677.129 47.028 676.799 46.602 676.355 46.278C675.923 45.942 675.383 45.774 674.735 45.774C674.099 45.774 673.559 45.942 673.115 46.278C672.671 46.602 672.335 47.028 672.107 47.556C671.891 48.072 671.783 48.63 671.783 49.23C671.783 49.818 671.891 50.376 672.107 50.904C672.335 51.432 672.671 51.864 673.115 52.2C673.559 52.524 674.099 52.686 674.735 52.686ZM681.766 54V44.46H683.476V45.846H683.584C683.668 45.702 683.806 45.504 683.998 45.252C684.202 45 684.49 44.778 684.862 44.586C685.234 44.382 685.702 44.28 686.266 44.28C686.962 44.28 687.556 44.442 688.048 44.766C688.54 45.078 688.912 45.504 689.164 46.044C689.428 46.584 689.56 47.19 689.56 47.862V54H687.85V47.97C687.85 47.334 687.67 46.806 687.31 46.386C686.962 45.966 686.452 45.756 685.78 45.756C685.24 45.756 684.802 45.894 684.466 46.17C684.13 46.434 683.878 46.788 683.71 47.232C683.554 47.664 683.476 48.126 683.476 48.618V54H681.766ZM695.783 54.18C694.799 54.18 694.055 53.928 693.551 53.424C693.059 52.92 692.813 52.212 692.813 51.3V45.864H691.103V44.46H692.813V42.066H694.523V44.46H696.845V45.864H694.523V51.3C694.523 51.78 694.655 52.134 694.919 52.362C695.183 52.578 695.567 52.686 696.071 52.686C696.335 52.686 696.587 52.668 696.827 52.632C697.067 52.596 697.187 52.578 697.187 52.578V54.036C697.187 54.036 697.049 54.06 696.773 54.108C696.497 54.156 696.167 54.18 695.783 54.18ZM703.22 44.28C703.82 44.28 704.324 44.376 704.732 44.568C705.14 44.76 705.47 44.988 705.722 45.252C705.974 45.504 706.166 45.744 706.298 45.972H706.406V44.46H708.116V54H706.406V52.488H706.298C706.166 52.716 705.974 52.962 705.722 53.226C705.47 53.49 705.14 53.718 704.732 53.91C704.324 54.09 703.82 54.18 703.22 54.18C702.5 54.18 701.87 54.042 701.33 53.766C700.79 53.478 700.34 53.1 699.98 52.632C699.62 52.152 699.35 51.618 699.17 51.03C698.99 50.442 698.9 49.842 698.9 49.23C698.9 48.618 698.99 48.018 699.17 47.43C699.35 46.842 699.62 46.314 699.98 45.846C700.34 45.366 700.79 44.988 701.33 44.712C701.87 44.424 702.5 44.28 703.22 44.28ZM703.508 45.738C702.872 45.738 702.338 45.912 701.906 46.26C701.474 46.596 701.15 47.028 700.934 47.556C700.73 48.084 700.628 48.642 700.628 49.23C700.628 49.806 700.73 50.364 700.934 50.904C701.15 51.432 701.474 51.87 701.906 52.218C702.338 52.554 702.872 52.722 703.508 52.722C704.144 52.722 704.672 52.554 705.092 52.218C705.524 51.87 705.842 51.432 706.046 50.904C706.262 50.364 706.37 49.806 706.37 49.23C706.37 48.642 706.262 48.084 706.046 47.556C705.842 47.028 705.524 46.596 705.092 46.26C704.672 45.912 704.144 45.738 703.508 45.738ZM715.147 54.18C714.367 54.18 713.683 54.042 713.095 53.766C712.507 53.478 712.015 53.1 711.619 52.632C711.235 52.152 710.941 51.618 710.737 51.03C710.545 50.442 710.449 49.842 710.449 49.23C710.449 48.618 710.545 48.024 710.737 47.448C710.929 46.86 711.217 46.326 711.601 45.846C711.997 45.366 712.489 44.988 713.077 44.712C713.665 44.424 714.355 44.28 715.147 44.28C715.915 44.28 716.551 44.394 717.055 44.622C717.559 44.85 717.961 45.138 718.261 45.486C718.573 45.822 718.801 46.164 718.945 46.512C719.101 46.848 719.203 47.13 719.251 47.358C719.299 47.586 719.323 47.7 719.323 47.7H717.667C717.667 47.7 717.637 47.604 717.577 47.412C717.517 47.208 717.403 46.98 717.235 46.728C717.067 46.476 716.815 46.254 716.479 46.062C716.143 45.858 715.699 45.756 715.147 45.756C714.487 45.756 713.929 45.924 713.473 46.26C713.029 46.584 712.693 47.01 712.465 47.538C712.249 48.066 712.141 48.63 712.141 49.23C712.141 49.83 712.249 50.394 712.465 50.922C712.693 51.45 713.029 51.882 713.473 52.218C713.929 52.542 714.487 52.704 715.147 52.704C715.699 52.704 716.143 52.608 716.479 52.416C716.815 52.212 717.067 51.984 717.235 51.732C717.403 51.48 717.517 51.258 717.577 51.066C717.637 50.862 717.667 50.76 717.667 50.76H719.323C719.323 50.76 719.299 50.874 719.251 51.102C719.203 51.33 719.101 51.618 718.945 51.966C718.801 52.302 718.573 52.644 718.261 52.992C717.961 53.328 717.559 53.61 717.055 53.838C716.551 54.066 715.915 54.18 715.147 54.18ZM725.718 54.18C724.734 54.18 723.99 53.928 723.486 53.424C722.994 52.92 722.748 52.212 722.748 51.3V45.864H721.038V44.46H722.748V42.066H724.458V44.46H726.78V45.864H724.458V51.3C724.458 51.78 724.59 52.134 724.854 52.362C725.118 52.578 725.502 52.686 726.006 52.686C726.27 52.686 726.522 52.668 726.762 52.632C727.002 52.596 727.122 52.578 727.122 52.578V54.036C727.122 54.036 726.984 54.06 726.708 54.108C726.432 54.156 726.102 54.18 725.718 54.18Z" fill="#262626"/>
<path d="M1519.9 54.18C1519.14 54.18 1518.48 54.084 1517.92 53.892C1517.38 53.688 1516.93 53.43 1516.57 53.118C1516.21 52.794 1515.93 52.458 1515.71 52.11C1515.49 51.762 1515.33 51.432 1515.22 51.12C1515.12 50.796 1515.04 50.538 1515.01 50.346C1514.98 50.142 1514.97 50.04 1514.97 50.04H1516.77C1516.77 50.04 1516.79 50.124 1516.83 50.292C1516.86 50.46 1516.93 50.67 1517.04 50.922C1517.16 51.174 1517.34 51.432 1517.56 51.696C1517.79 51.948 1518.1 52.158 1518.48 52.326C1518.87 52.494 1519.35 52.578 1519.94 52.578C1520.83 52.578 1521.53 52.368 1522.05 51.948C1522.56 51.516 1522.82 50.958 1522.82 50.274C1522.82 49.686 1522.62 49.23 1522.23 48.906C1521.84 48.582 1521.29 48.33 1520.57 48.15L1518.81 47.718C1518.18 47.562 1517.6 47.346 1517.06 47.07C1516.53 46.782 1516.11 46.41 1515.78 45.954C1515.47 45.486 1515.31 44.904 1515.31 44.208C1515.31 43.428 1515.51 42.762 1515.89 42.21C1516.27 41.658 1516.8 41.238 1517.46 40.95C1518.12 40.65 1518.87 40.5 1519.71 40.5C1520.52 40.5 1521.2 40.626 1521.74 40.878C1522.28 41.13 1522.71 41.442 1523.04 41.814C1523.36 42.174 1523.6 42.54 1523.76 42.912C1523.91 43.272 1524.01 43.578 1524.06 43.83C1524.11 44.082 1524.13 44.208 1524.13 44.208H1522.41C1522.41 44.208 1522.38 44.1 1522.33 43.884C1522.29 43.668 1522.17 43.422 1521.99 43.146C1521.81 42.858 1521.54 42.606 1521.16 42.39C1520.79 42.174 1520.29 42.066 1519.65 42.066C1518.79 42.066 1518.13 42.27 1517.69 42.678C1517.26 43.086 1517.04 43.554 1517.04 44.082C1517.04 44.562 1517.22 44.952 1517.56 45.252C1517.91 45.54 1518.39 45.762 1519 45.918L1520.91 46.386C1521.6 46.554 1522.21 46.8 1522.77 47.124C1523.32 47.436 1523.76 47.844 1524.08 48.348C1524.4 48.84 1524.57 49.446 1524.57 50.166C1524.57 50.886 1524.39 51.552 1524.03 52.164C1523.68 52.776 1523.16 53.268 1522.46 53.64C1521.78 54 1520.92 54.18 1519.9 54.18ZM1527.8 42.642C1527.48 42.642 1527.21 42.534 1526.99 42.318C1526.79 42.102 1526.69 41.844 1526.69 41.544C1526.69 41.232 1526.79 40.968 1526.99 40.752C1527.21 40.536 1527.48 40.428 1527.8 40.428C1528.11 40.428 1528.38 40.536 1528.59 40.752C1528.81 40.968 1528.92 41.232 1528.92 41.544C1528.92 41.844 1528.81 42.102 1528.59 42.318C1528.38 42.534 1528.11 42.642 1527.8 42.642ZM1526.96 54V44.46H1528.67V54H1526.96ZM1536.02 57.78C1535.23 57.78 1534.57 57.672 1534.04 57.456C1533.51 57.252 1533.09 56.988 1532.76 56.664C1532.45 56.352 1532.22 56.04 1532.06 55.728C1531.91 55.416 1531.8 55.152 1531.76 54.936C1531.71 54.732 1531.68 54.63 1531.68 54.63H1533.39C1533.39 54.63 1533.42 54.714 1533.48 54.882C1533.54 55.05 1533.66 55.242 1533.83 55.458C1534.01 55.674 1534.27 55.866 1534.62 56.034C1534.97 56.202 1535.43 56.286 1536.02 56.286C1536.72 56.286 1537.26 56.148 1537.66 55.872C1538.06 55.608 1538.34 55.26 1538.51 54.828C1538.69 54.396 1538.78 53.94 1538.78 53.46V52.362H1538.69C1538.57 52.566 1538.37 52.8 1538.11 53.064C1537.86 53.316 1537.52 53.538 1537.1 53.73C1536.68 53.91 1536.17 54 1535.55 54C1534.83 54 1534.2 53.862 1533.66 53.586C1533.12 53.31 1532.67 52.938 1532.31 52.47C1531.97 52.002 1531.7 51.48 1531.52 50.904C1531.34 50.328 1531.25 49.74 1531.25 49.14C1531.25 48.54 1531.34 47.952 1531.52 47.376C1531.7 46.8 1531.97 46.278 1532.31 45.81C1532.67 45.342 1533.12 44.97 1533.66 44.694C1534.2 44.418 1534.83 44.28 1535.55 44.28C1536.17 44.28 1536.68 44.376 1537.1 44.568C1537.52 44.748 1537.86 44.964 1538.11 45.216C1538.37 45.468 1538.57 45.702 1538.69 45.918H1538.78V44.46H1540.49V53.442C1540.49 54.774 1540.1 55.83 1539.32 56.61C1538.55 57.39 1537.45 57.78 1536.02 57.78ZM1535.88 52.542C1536.51 52.542 1537.04 52.38 1537.46 52.056C1537.89 51.72 1538.21 51.294 1538.42 50.778C1538.63 50.262 1538.74 49.716 1538.74 49.14C1538.74 48.564 1538.63 48.018 1538.42 47.502C1538.21 46.974 1537.89 46.548 1537.46 46.224C1537.04 45.9 1536.51 45.738 1535.88 45.738C1535.24 45.738 1534.71 45.9 1534.28 46.224C1533.84 46.548 1533.52 46.974 1533.3 47.502C1533.1 48.018 1533 48.564 1533 49.14C1533 49.716 1533.1 50.262 1533.3 50.778C1533.52 51.294 1533.84 51.72 1534.28 52.056C1534.71 52.38 1535.24 52.542 1535.88 52.542ZM1543 54V44.46H1544.71V45.846H1544.82C1544.9 45.702 1545.04 45.504 1545.23 45.252C1545.43 45 1545.72 44.778 1546.09 44.586C1546.47 44.382 1546.93 44.28 1547.5 44.28C1548.19 44.28 1548.79 44.442 1549.28 44.766C1549.77 45.078 1550.14 45.504 1550.4 46.044C1550.66 46.584 1550.79 47.19 1550.79 47.862V54H1549.08V47.97C1549.08 47.334 1548.9 46.806 1548.54 46.386C1548.19 45.966 1547.68 45.756 1547.01 45.756C1546.47 45.756 1546.03 45.894 1545.7 46.17C1545.36 46.434 1545.11 46.788 1544.94 47.232C1544.79 47.664 1544.71 48.126 1544.71 48.618V54H1543ZM1562.72 54.18C1561.68 54.18 1560.78 53.982 1560.02 53.586C1559.27 53.178 1558.68 52.608 1558.26 51.876C1557.85 51.132 1557.65 50.256 1557.65 49.248V40.68H1559.41V49.248C1559.41 50.172 1559.68 50.946 1560.22 51.57C1560.77 52.194 1561.61 52.506 1562.72 52.506C1563.85 52.506 1564.68 52.194 1565.22 51.57C1565.78 50.946 1566.05 50.172 1566.05 49.248V40.68H1567.82V49.248C1567.82 50.256 1567.61 51.132 1567.19 51.876C1566.78 52.608 1566.2 53.178 1565.44 53.586C1564.68 53.982 1563.78 54.18 1562.72 54.18ZM1570.69 57.528V44.46H1572.4V45.972H1572.51C1572.65 45.744 1572.84 45.498 1573.08 45.234C1573.33 44.97 1573.66 44.748 1574.07 44.568C1574.48 44.376 1574.98 44.28 1575.58 44.28C1576.3 44.28 1576.93 44.424 1577.47 44.712C1578.01 44.988 1578.46 45.366 1578.82 45.846C1579.18 46.314 1579.45 46.842 1579.63 47.43C1579.81 48.018 1579.9 48.618 1579.9 49.23C1579.9 49.842 1579.81 50.442 1579.63 51.03C1579.45 51.618 1579.18 52.152 1578.82 52.632C1578.46 53.1 1578.01 53.478 1577.47 53.766C1576.93 54.042 1576.3 54.18 1575.58 54.18C1574.98 54.18 1574.48 54.084 1574.07 53.892C1573.66 53.7 1573.33 53.472 1573.08 53.208C1572.84 52.944 1572.65 52.704 1572.51 52.488H1572.4V57.528H1570.69ZM1572.43 49.23C1572.43 49.806 1572.54 50.364 1572.74 50.904C1572.96 51.432 1573.27 51.87 1573.69 52.218C1574.13 52.554 1574.66 52.722 1575.3 52.722C1575.94 52.722 1576.48 52.554 1576.9 52.218C1577.33 51.87 1577.65 51.432 1577.85 50.904C1578.07 50.364 1578.18 49.806 1578.18 49.23C1578.18 48.642 1578.07 48.084 1577.85 47.556C1577.65 47.028 1577.33 46.596 1576.9 46.26C1576.48 45.912 1575.94 45.738 1575.3 45.738C1574.66 45.738 1574.13 45.912 1573.69 46.26C1573.27 46.596 1572.96 47.028 1572.74 47.556C1572.54 48.084 1572.43 48.642 1572.43 49.23Z" fill="#262626"/>
<rect x="1611" y="20" width="117" height="55" rx="8" fill="#FF9500"/>
<path d="M1646.44 54V40.68H1648.2V52.452H1655.06V54H1646.44ZM1661.29 54.18C1660.27 54.18 1659.41 53.946 1658.72 53.478C1658.02 52.998 1657.49 52.38 1657.13 51.624C1656.77 50.868 1656.59 50.07 1656.59 49.23C1656.59 48.378 1656.77 47.58 1657.13 46.836C1657.49 46.08 1658.02 45.468 1658.72 45C1659.41 44.52 1660.27 44.28 1661.29 44.28C1662.31 44.28 1663.17 44.52 1663.86 45C1664.56 45.468 1665.09 46.08 1665.45 46.836C1665.81 47.58 1665.99 48.378 1665.99 49.23C1665.99 50.07 1665.81 50.868 1665.45 51.624C1665.09 52.38 1664.56 52.998 1663.86 53.478C1663.17 53.946 1662.31 54.18 1661.29 54.18ZM1661.29 52.686C1661.94 52.686 1662.48 52.524 1662.91 52.2C1663.35 51.864 1663.68 51.432 1663.9 50.904C1664.13 50.376 1664.24 49.818 1664.24 49.23C1664.24 48.63 1664.13 48.072 1663.9 47.556C1663.68 47.028 1663.35 46.602 1662.91 46.278C1662.48 45.942 1661.94 45.774 1661.29 45.774C1660.65 45.774 1660.11 45.942 1659.67 46.278C1659.23 46.602 1658.89 47.028 1658.66 47.556C1658.45 48.072 1658.34 48.63 1658.34 49.23C1658.34 49.818 1658.45 50.376 1658.66 50.904C1658.89 51.432 1659.23 51.864 1659.67 52.2C1660.11 52.524 1660.65 52.686 1661.29 52.686ZM1672.82 57.78C1672.03 57.78 1671.37 57.672 1670.84 57.456C1670.31 57.252 1669.89 56.988 1669.56 56.664C1669.25 56.352 1669.02 56.04 1668.86 55.728C1668.71 55.416 1668.6 55.152 1668.56 54.936C1668.51 54.732 1668.48 54.63 1668.48 54.63H1670.19C1670.19 54.63 1670.22 54.714 1670.28 54.882C1670.34 55.05 1670.46 55.242 1670.63 55.458C1670.81 55.674 1671.07 55.866 1671.42 56.034C1671.77 56.202 1672.23 56.286 1672.82 56.286C1673.52 56.286 1674.06 56.148 1674.46 55.872C1674.86 55.608 1675.14 55.26 1675.31 54.828C1675.49 54.396 1675.58 53.94 1675.58 53.46V52.362H1675.49C1675.37 52.566 1675.17 52.8 1674.91 53.064C1674.66 53.316 1674.32 53.538 1673.9 53.73C1673.48 53.91 1672.97 54 1672.35 54C1671.63 54 1671 53.862 1670.46 53.586C1669.92 53.31 1669.47 52.938 1669.11 52.47C1668.77 52.002 1668.5 51.48 1668.32 50.904C1668.14 50.328 1668.05 49.74 1668.05 49.14C1668.05 48.54 1668.14 47.952 1668.32 47.376C1668.5 46.8 1668.77 46.278 1669.11 45.81C1669.47 45.342 1669.92 44.97 1670.46 44.694C1671 44.418 1671.63 44.28 1672.35 44.28C1672.97 44.28 1673.48 44.376 1673.9 44.568C1674.32 44.748 1674.66 44.964 1674.91 45.216C1675.17 45.468 1675.37 45.702 1675.49 45.918H1675.58V44.46H1677.29V53.442C1677.29 54.774 1676.9 55.83 1676.12 56.61C1675.35 57.39 1674.25 57.78 1672.82 57.78ZM1672.68 52.542C1673.31 52.542 1673.84 52.38 1674.26 52.056C1674.69 51.72 1675.01 51.294 1675.22 50.778C1675.43 50.262 1675.54 49.716 1675.54 49.14C1675.54 48.564 1675.43 48.018 1675.22 47.502C1675.01 46.974 1674.69 46.548 1674.26 46.224C1673.84 45.9 1673.31 45.738 1672.68 45.738C1672.04 45.738 1671.51 45.9 1671.08 46.224C1670.64 46.548 1670.32 46.974 1670.1 47.502C1669.9 48.018 1669.8 48.564 1669.8 49.14C1669.8 49.716 1669.9 50.262 1670.1 50.778C1670.32 51.294 1670.64 51.72 1671.08 52.056C1671.51 52.38 1672.04 52.542 1672.68 52.542ZM1680.92 42.642C1680.59 42.642 1680.32 42.534 1680.11 42.318C1679.9 42.102 1679.8 41.844 1679.8 41.544C1679.8 41.232 1679.9 40.968 1680.11 40.752C1680.32 40.536 1680.59 40.428 1680.92 40.428C1681.23 40.428 1681.49 40.536 1681.71 40.752C1681.92 40.968 1682.03 41.232 1682.03 41.544C1682.03 41.844 1681.92 42.102 1681.71 42.318C1681.49 42.534 1681.23 42.642 1680.92 42.642ZM1680.07 54V44.46H1681.78V54H1680.07ZM1684.55 54V44.46H1686.26V45.846H1686.36C1686.45 45.702 1686.59 45.504 1686.78 45.252C1686.98 45 1687.27 44.778 1687.64 44.586C1688.01 44.382 1688.48 44.28 1689.05 44.28C1689.74 44.28 1690.34 44.442 1690.83 44.766C1691.32 45.078 1691.69 45.504 1691.94 46.044C1692.21 46.584 1692.34 47.19 1692.34 47.862V54H1690.63V47.97C1690.63 47.334 1690.45 46.806 1690.09 46.386C1689.74 45.966 1689.23 45.756 1688.56 45.756C1688.02 45.756 1687.58 45.894 1687.25 46.17C1686.91 46.434 1686.66 46.788 1686.49 47.232C1686.33 47.664 1686.26 48.126 1686.26 48.618V54H1684.55Z" fill="white"/>
</svg>
