<svg width="33" height="23" viewBox="0 0 33 23" fill="none" xmlns="http://www.w3.org/2000/svg">
<path d="M11.7969 19.4617C16.6154 18.1356 18.6777 14.3267 17.3191 9.1918L15.4914 2.21223C14.9929 0.337719 13.781 -0.340294 11.9142 0.158245L2.22841 2.78056C0.351845 3.29904 -0.342093 4.49553 0.15637 6.40992L1.97429 13.3795C3.31329 18.5045 6.97846 20.7779 11.7969 19.4617ZM10.8782 15.8922C8.83545 16.4306 6.8514 15.7227 5.8056 14.0276C5.60036 13.7185 5.77629 13.4094 6.16724 13.4394C7.46715 13.549 9.01143 13.3196 10.1256 13.0106C11.2203 12.7214 12.6472 12.1431 13.7321 11.3754C14.0546 11.1361 14.3772 11.3055 14.3576 11.7144C14.2892 13.7086 12.9307 15.3138 10.8782 15.8922ZM5.95222 9.34138C5.21918 9.55068 5.12144 10.0493 4.80868 10.0991C4.66208 10.129 4.48615 9.95951 4.39818 9.67039C4.16361 8.82287 4.6914 7.91551 5.53194 7.70613C6.38226 7.49675 7.25213 8.00525 7.46715 8.82287C7.55511 9.12194 7.47692 9.35133 7.32054 9.41114C6.95892 9.54073 6.61683 9.16185 5.95222 9.34138ZM11.9142 7.69616C11.1812 7.91551 11.0834 8.40408 10.7706 8.44397C10.6241 8.47388 10.4481 8.30438 10.3602 8.02519C10.1256 7.18765 10.6534 6.27034 11.4939 6.06095C12.354 5.83162 13.2141 6.3501 13.4291 7.17768C13.5171 7.48677 13.439 7.70613 13.2826 7.76595C12.9307 7.89558 12.5788 7.50672 11.9142 7.69616ZM30.758 5.36299L21.082 2.72074C19.3618 2.25211 18.1499 2.77059 17.6514 4.32603L17.5341 4.75478L18.6093 8.84278C19.6843 12.9209 18.8048 16.3708 16.3027 18.6042C17.2605 20.2195 18.9611 21.4259 21.2091 22.0341C26.008 23.3403 29.6536 21.067 31.0024 15.942L32.8496 8.98241C33.3383 7.09791 32.6346 5.8715 30.758 5.36299ZM20.9061 11.4053C20.2317 11.2358 19.8309 10.5378 20.0167 9.82993C20.2023 9.14194 20.8866 8.73311 21.5609 8.92259C22.2353 9.11199 22.636 9.81997 22.4601 10.5079C22.2744 11.1959 21.5902 11.5947 20.9061 11.4053ZM26.6433 12.9707C25.9787 12.7912 25.578 12.0833 25.7636 11.3853C25.9395 10.6974 26.6238 10.2986 27.2982 10.488C27.9823 10.6575 28.3732 11.3654 28.1973 12.0634C28.0116 12.7514 27.3274 13.1601 26.6433 12.9707ZM22.5285 16.7995C21.5121 16.5103 20.5347 16.5003 19.2837 16.7795C18.8927 16.8693 18.6581 16.5402 18.8634 16.2112C19.7039 14.8651 21.4045 14.3068 23.0563 14.7754C24.7667 15.2141 25.9298 16.5502 25.9884 18.1455C26.008 18.5444 25.6464 18.7139 25.3531 18.4447C24.3856 17.5473 23.5548 17.0687 22.5285 16.7995Z" fill="#FF9500"/>
</svg>
