<svg width="18" height="15" viewBox="0 0 18 15" fill="none" xmlns="http://www.w3.org/2000/svg">
<path fill-rule="evenodd" clip-rule="evenodd" d="M0.5 7.50001C0.5 6.79585 1.07084 6.22501 1.775 6.22501H13.0595L9.39129 2.89408C8.8837 2.40601 8.86788 1.59888 9.35594 1.0913C9.844 0.583716 10.6511 0.56789 11.1587 1.05595L17.1087 6.58095C17.3587 6.82134 17.5 7.15319 17.5 7.50001C17.5 7.84684 17.3587 8.17869 17.1087 8.41908L11.1587 13.9441C10.6511 14.4321 9.844 14.4163 9.35594 13.9087C8.86788 13.4011 8.8837 12.594 9.39129 12.106L13.0595 8.77501H1.775C1.07084 8.77501 0.5 8.20418 0.5 7.50001Z" fill="#262626"/>
</svg>
