<svg width="18" height="15" viewBox="0 0 18 15" fill="none" xmlns="http://www.w3.org/2000/svg">
<path fill-rule="evenodd" clip-rule="evenodd" d="M17.5 7.50001C17.5 8.20418 16.9292 8.77501 16.225 8.77501H4.94054L8.60871 12.106C9.1163 12.594 9.13212 13.4011 8.64406 13.9087C8.156 14.4163 7.34887 14.4321 6.84129 13.9441L0.891286 8.41908C0.641287 8.17869 0.5 7.84684 0.5 7.50001C0.5 7.15319 0.641287 6.82134 0.891286 6.58095L6.84129 1.05595C7.34887 0.56789 8.156 0.583716 8.64406 1.0913C9.13212 1.59888 9.1163 2.40601 8.60871 2.89408L4.94054 6.22501H16.225C16.9292 6.22501 17.5 6.79585 17.5 7.50001Z" fill="#262626"/>
</svg>
