<svg width="22" height="22" viewBox="0 0 22 22" fill="none" xmlns="http://www.w3.org/2000/svg">
<path fill-rule="evenodd" clip-rule="evenodd" d="M0.5 3.125C0.5 1.46815 1.84315 0.125 3.5 0.125H4.87163C5.732 0.125 6.48197 0.710557 6.69064 1.54525L7.79644 5.96843C7.97941 6.7003 7.70594 7.47055 7.10242 7.92318L5.8088 8.8934C5.67447 8.99415 5.64527 9.14168 5.683 9.24469C6.81851 12.3445 9.28051 14.8065 12.3803 15.942C12.4833 15.9797 12.6309 15.9505 12.7316 15.8162L13.7018 14.5226C14.1545 13.9191 14.9247 13.6456 15.6566 13.8286L20.0798 14.9344C20.9144 15.143 21.5 15.893 21.5 16.7534V18.125C21.5 19.7819 20.1569 21.125 18.5 21.125H16.25C7.55151 21.125 0.5 14.0735 0.5 5.375V3.125Z" fill="#262626"/>
</svg>
